<?xml version="1.0" encoding="utf-8"?>
<!-- Generator: Adobe Illustrator 17.0.0, SVG Export Plug-In . SVG Version: 6.00 Build 0)  -->
<!DOCTYPE svg PUBLIC "-//W3C//DTD SVG 1.1//EN" "http://www.w3.org/Graphics/SVG/1.1/DTD/svg11.dtd" [
	<!ENTITY st0 "stroke:#000000;stroke-width:1.5;stroke-miterlimit:10;">
	<!ENTITY st1 "stroke:#000000;stroke-miterlimit:10;">
]>
<svg version="1.1" id="Calque_1" xmlns="http://www.w3.org/2000/svg" xmlns:xlink="http://www.w3.org/1999/xlink" x="0px" y="0px"
	 viewBox="0 0 80 80" style="enable-background:new 0 0 737.01 368.5;"
	 xml:space="preserve">
<g>
	<g>
		<polygon style="&st0;" points="286.282,146.26 344.649,105.951 367.826,120.389 368.362,120.723 368.894,120.383 391.77,105.752 
			450.427,146.26 452.186,146.26 391.79,104.551 368.355,119.54 344.621,104.756 284.523,146.26 		"/>
	</g>
	<g>
		<path style="&st0;" d="M326.298,200.587h-1.846c-0.219,0-0.397-0.059-0.538-0.176c-0.14-0.116-0.249-0.269-0.327-0.455
			l-3.88-9.607h-16.244l-3.881,9.607c-0.063,0.172-0.171,0.319-0.327,0.444c-0.155,0.124-0.343,0.186-0.561,0.186h-1.823
			l13.533-33.073h2.36L326.298,200.587z M318.982,188.573l-6.731-16.712c-0.233-0.546-0.46-1.2-0.678-1.964
			c-0.094,0.374-0.195,0.729-0.304,1.063c-0.109,0.335-0.227,0.643-0.351,0.924l-6.731,16.688H318.982z"/>
		<path style="&st0;" d="M347.848,171.534c-0.14,0.265-0.343,0.396-0.607,0.396c-0.202,0-0.464-0.144-0.783-0.432
			c-0.319-0.288-0.752-0.608-1.297-0.959c-0.546-0.35-1.228-0.674-2.045-0.97c-0.818-0.296-1.827-0.444-3.027-0.444
			s-2.255,0.172-3.167,0.515c-0.911,0.343-1.675,0.811-2.29,1.402c-0.616,0.593-1.084,1.277-1.402,2.057
			c-0.32,0.779-0.479,1.598-0.479,2.454c0,1.122,0.237,2.05,0.713,2.781c0.475,0.733,1.103,1.356,1.882,1.87
			c0.778,0.515,1.663,0.947,2.652,1.298s2.006,0.697,3.051,1.04c1.043,0.343,2.06,0.721,3.05,1.133
			c0.989,0.413,1.873,0.932,2.653,1.555c0.778,0.623,1.405,1.391,1.881,2.303c0.475,0.911,0.713,2.045,0.713,3.4
			c0,1.387-0.237,2.692-0.713,3.915c-0.476,1.224-1.165,2.287-2.068,3.19c-0.904,0.904-2.01,1.617-3.319,2.139
			c-1.309,0.522-2.805,0.783-4.487,0.783c-2.182,0-4.06-0.386-5.633-1.157c-1.574-0.771-2.953-1.826-4.138-3.167l0.655-1.028
			c0.186-0.233,0.404-0.351,0.654-0.351c0.14,0,0.319,0.094,0.537,0.28c0.218,0.188,0.483,0.417,0.795,0.689
			c0.311,0.274,0.685,0.569,1.122,0.889c0.436,0.319,0.942,0.615,1.52,0.888c0.576,0.273,1.238,0.503,1.986,0.689
			c0.748,0.188,1.597,0.281,2.548,0.281c1.309,0,2.478-0.199,3.506-0.597c1.028-0.397,1.896-0.938,2.606-1.624
			c0.709-0.686,1.25-1.5,1.624-2.442c0.374-0.943,0.561-1.952,0.561-3.027c0-1.169-0.238-2.131-0.713-2.887
			c-0.476-0.756-1.103-1.387-1.882-1.893c-0.779-0.507-1.664-0.932-2.653-1.274c-0.989-0.343-2.006-0.678-3.05-1.005
			c-1.044-0.327-2.061-0.693-3.051-1.099c-0.989-0.405-1.873-0.923-2.652-1.555c-0.779-0.631-1.406-1.417-1.882-2.36
			c-0.476-0.942-0.713-2.123-0.713-3.541c0-1.106,0.211-2.174,0.631-3.202c0.421-1.028,1.036-1.937,1.847-2.723
			c0.811-0.787,1.811-1.418,3.004-1.894c1.191-0.475,2.551-0.713,4.078-0.713c1.714,0,3.253,0.272,4.616,0.818
			c1.363,0.545,2.606,1.379,3.728,2.501L347.848,171.534z"/>
		<path style="&st0;" d="M378.304,169.547h-11.616v31.04h-2.408v-31.04h-11.686v-2.033h25.711V169.547z"/>
		<path style="&st0;" d="M406.679,200.587h-2.057c-0.265,0-0.487-0.043-0.666-0.129c-0.18-0.085-0.347-0.245-0.503-0.478
			l-10.611-13.417c-0.125-0.171-0.253-0.318-0.386-0.443c-0.133-0.125-0.28-0.223-0.444-0.293c-0.163-0.069-0.358-0.12-0.584-0.151
			c-0.226-0.031-0.503-0.047-0.83-0.047h-4.323v14.959h-2.408v-33.073h8.462c3.802,0,6.649,0.736,8.543,2.209
			c1.893,1.472,2.84,3.634,2.84,6.485c0,1.263-0.219,2.416-0.655,3.46c-0.436,1.044-1.064,1.959-1.881,2.746
			c-0.818,0.787-1.808,1.43-2.969,1.929c-1.161,0.498-2.466,0.833-3.915,1.005c0.374,0.233,0.709,0.545,1.005,0.934L406.679,200.587
			z M392,183.852c1.465,0,2.778-0.176,3.938-0.526c1.161-0.351,2.143-0.852,2.945-1.507c0.803-0.654,1.414-1.441,1.835-2.361
			c0.421-0.919,0.631-1.955,0.631-3.108c0-2.353-0.768-4.098-2.302-5.235c-1.535-1.138-3.775-1.706-6.72-1.706h-6.054v14.444H392z"
			/>
		<path style="&st0;" d="M441.459,184.038c0,2.557-0.382,4.874-1.146,6.954c-0.764,2.08-1.839,3.856-3.226,5.329
			c-1.387,1.473-3.05,2.61-4.99,3.412c-1.939,0.803-4.078,1.204-6.416,1.204c-2.337,0-4.473-0.401-6.404-1.204
			c-1.933-0.802-3.592-1.939-4.978-3.412c-1.387-1.473-2.462-3.249-3.226-5.329c-0.764-2.08-1.145-4.398-1.145-6.954
			c0-2.539,0.382-4.85,1.145-6.93c0.764-2.08,1.839-3.856,3.226-5.329c1.387-1.473,3.046-2.614,4.978-3.425
			c1.932-0.81,4.067-1.215,6.404-1.215c2.338,0,4.477,0.401,6.416,1.203c1.94,0.803,3.604,1.944,4.99,3.425
			c1.387,1.48,2.462,3.261,3.226,5.341C441.077,179.189,441.459,181.499,441.459,184.038z M438.981,184.038
			c0-2.306-0.319-4.378-0.959-6.217c-0.639-1.839-1.542-3.396-2.711-4.675c-1.169-1.277-2.571-2.256-4.207-2.934
			c-1.637-0.678-3.444-1.017-5.423-1.017c-1.963,0-3.763,0.339-5.399,1.017c-1.636,0.678-3.042,1.656-4.219,2.934
			c-1.177,1.278-2.088,2.836-2.734,4.675c-0.648,1.839-0.97,3.911-0.97,6.217c0,2.322,0.322,4.398,0.97,6.229
			c0.646,1.831,1.558,3.386,2.734,4.663c1.177,1.277,2.583,2.252,4.219,2.922c1.637,0.67,3.437,1.005,5.399,1.005
			c1.979,0,3.786-0.335,5.423-1.005c1.636-0.67,3.038-1.645,4.207-2.922c1.169-1.277,2.072-2.832,2.711-4.663
			C438.662,188.436,438.981,186.36,438.981,184.038z"/>
	</g>
	<g>
		<path style="&st1;" d="M368.126,143.474v14.699h-0.924v-12.528c0-0.18,0.01-0.37,0.031-0.571l-5.785,10.275
			c-0.098,0.18-0.236,0.27-0.416,0.27h-0.166c-0.182,0-0.318-0.09-0.416-0.27l-5.942-10.295c0.021,0.208,0.031,0.405,0.031,0.592
			v12.528h-0.936v-14.699h0.738c0.097,0,0.173,0.011,0.228,0.031c0.055,0.021,0.11,0.076,0.166,0.166l5.933,10.222
			c0.104,0.194,0.193,0.402,0.27,0.624c0.041-0.111,0.086-0.22,0.135-0.327c0.049-0.107,0.1-0.21,0.156-0.307l5.766-10.212
			c0.055-0.09,0.111-0.145,0.172-0.166c0.059-0.02,0.135-0.031,0.232-0.031H368.126z"/>
		<path style="&st1;" d="M377.009,152.116v6.057h-1.06v-6.057l-5.443-8.643h0.935c0.097,0,0.177,0.022,0.239,0.067
			s0.114,0.109,0.155,0.192l4.208,6.752c0.09,0.159,0.173,0.313,0.249,0.463c0.076,0.148,0.142,0.296,0.197,0.441
			c0.056-0.146,0.117-0.293,0.186-0.441c0.069-0.149,0.149-0.304,0.239-0.463l4.207-6.752c0.035-0.076,0.085-0.139,0.151-0.188
			c0.066-0.048,0.147-0.072,0.244-0.072h0.935L377.009,152.116z"/>
	</g>
	<polygon style="&st0;" points="277.705,191.119 272.865,183.852 277.705,176.582 282.545,183.852 	"/>
	<polygon style="&st0;" points="459.934,191.119 455.095,183.852 459.934,176.582 464.773,183.852 	"/>
	<g>
		<rect x="277.705" y="150.444" style="&st0;" width="67.307" height="1"/>
	</g>
	<g>
		<rect x="392.099" y="150.444" style="&st0;" width="67.378" height="1"/>
	</g>
	<g>
		<rect x="277.705" y="216.237" style="&st0;" width="182.12" height="1"/>
	</g>
	<g>
		<polygon points="348.613,101.385 368.35,87.88 387.643,101.385 		"/>
		<g>
			<path d="M368.345,88.792l16.918,11.843h-34.226L368.345,88.792 M368.354,86.968l-22.166,15.167h43.833L368.354,86.968
				L368.354,86.968z"/>
		</g>
	</g>
	<g>
		<polygon style="&st0;" points="450.427,222.676 392.06,262.984 368.883,248.547 368.347,248.213 367.815,248.553 344.939,263.184 
			286.283,222.676 284.522,222.676 344.919,264.385 368.354,249.395 392.088,264.18 452.186,222.676 		"/>
	</g>
	<g>
		<polygon points="349.068,267.834 388.097,267.834 368.359,281.339 		"/>
		<g>
			<path d="M385.673,268.584l-17.309,11.843l-16.918-11.843H385.673 M390.521,267.084h-43.833l21.666,15.167L390.521,267.084
				L390.521,267.084z"/>
		</g>
	</g>
</g>
</svg>
