<?xml version="1.0" encoding="iso-8859-1"?>
<!-- Generator: Adobe Illustrator 17.0.0, SVG Export Plug-In . SVG Version: 6.00 Build 0)  -->
<!DOCTYPE svg PUBLIC "-//W3C//DTD SVG 1.1//EN" "http://www.w3.org/Graphics/SVG/1.1/DTD/svg11.dtd">
<svg version="1.1" id="Mode_Isolation" xmlns="http://www.w3.org/2000/svg" xmlns:xlink="http://www.w3.org/1999/xlink" x="0px"
	 y="0px" width="240.945px" height="189.921px" viewBox="0 0 240.945 189.921" style="enable-background:new 0 0 240.945 189.921;"
	 xml:space="preserve">
<g>
	<g>
		<linearGradient id="SVGID_1_" gradientUnits="userSpaceOnUse" x1="7.3919" y1="170.4041" x2="234.6526" y2="170.4041">
			<stop  offset="0" style="stop-color:#001400"/>
			<stop  offset="0.0614" style="stop-color:#021802"/>
			<stop  offset="0.1284" style="stop-color:#0A2608"/>
			<stop  offset="0.1981" style="stop-color:#163B12"/>
			<stop  offset="0.2697" style="stop-color:#275A20"/>
			<stop  offset="0.3426" style="stop-color:#3D8132"/>
			<stop  offset="0.4158" style="stop-color:#57B147"/>
			<stop  offset="0.4176" style="stop-color:#58B248"/>
			<stop  offset="0.6557" style="stop-color:#004E1E"/>
			<stop  offset="0.7445" style="stop-color:#00491A"/>
			<stop  offset="0.8517" style="stop-color:#003A10"/>
			<stop  offset="0.9634" style="stop-color:#002300"/>
		</linearGradient>
		<path style="fill:url(#SVGID_1_);" d="M117.536,186.545c-49.752,5.232-106.811-14.898-110.145-29.14
			c75.754,5.477,151.507-8.141,227.261-2.664C234.653,155.98,227.603,177.197,117.536,186.545z"/>
	</g>
	<g>
		<radialGradient id="SVGID_2_" cx="153.3728" cy="153.4525" r="163.1367" gradientUnits="userSpaceOnUse">
			<stop  offset="0" style="stop-color:#B1D350"/>
			<stop  offset="0.1248" style="stop-color:#A3C84C"/>
			<stop  offset="0.3615" style="stop-color:#7DAB41"/>
			<stop  offset="0.6823" style="stop-color:#427C2F"/>
			<stop  offset="1" style="stop-color:#00491B"/>
		</radialGradient>
		<path style="fill:url(#SVGID_2_);" d="M235.553,152.302c0,14.199-51.523,20.923-115.081,27.401
			C56.915,186.18,5.392,168.37,5.392,152.302c0-14.199,51.524-20.923,115.08-27.401C184.03,118.424,235.553,136.234,235.553,152.302
			z"/>
	</g>
	<linearGradient id="SVGID_3_" gradientUnits="userSpaceOnUse" x1="56.7923" y1="82.6458" x2="203.8391" y2="82.6458">
		<stop  offset="0" style="stop-color:#90BE3F"/>
		<stop  offset="0.0822" style="stop-color:#73A135"/>
		<stop  offset="0.4139" style="stop-color:#00300D"/>
		<stop  offset="0.4742" style="stop-color:#004319"/>
		<stop  offset="0.5955" style="stop-color:#007339"/>
		<stop  offset="0.641" style="stop-color:#008746"/>
		<stop  offset="0.7802" style="stop-color:#5CB544"/>
		<stop  offset="0.812" style="stop-color:#58B043"/>
		<stop  offset="0.8504" style="stop-color:#4EA13E"/>
		<stop  offset="0.8922" style="stop-color:#3D8937"/>
		<stop  offset="0.9361" style="stop-color:#25672D"/>
		<stop  offset="0.9634" style="stop-color:#134E26"/>
	</linearGradient>
	<path style="fill:url(#SVGID_3_);" d="M61.877,149.029c0,0,20.087-104.796-5.085-143.463c0,0,72.6,45.333,147.047,11.333
		c0,0-42.879,92.261-25.549,132.13C178.29,149.029,149.544,173.099,61.877,149.029z"/>
	<linearGradient id="SVGID_4_" gradientUnits="userSpaceOnUse" x1="61.8772" y1="138.8209" x2="178.2903" y2="138.8209">
		<stop  offset="0" style="stop-color:#2A2722"/>
		<stop  offset="0.2564" style="stop-color:#010000"/>
		<stop  offset="0.6923" style="stop-color:#000000"/>
		<stop  offset="0.7363" style="stop-color:#181819"/>
		<stop  offset="0.8293" style="stop-color:#565759"/>
		<stop  offset="0.8755" style="stop-color:#77787B"/>
		<stop  offset="0.8967" style="stop-color:#727376"/>
		<stop  offset="0.9213" style="stop-color:#656668"/>
		<stop  offset="0.9476" style="stop-color:#4E4F51"/>
		<stop  offset="0.9748" style="stop-color:#2F3031"/>
		<stop  offset="1" style="stop-color:#0C0C0C"/>
	</linearGradient>
	<path style="fill:url(#SVGID_4_);" d="M174.229,121.543c-0.355,10.396,0.761,19.891,4.061,27.485c0,0-28.746,24.07-116.413,0
		c0-0.001,2.454-12.805,4.572-31.113c0,0,23.989,14.316,60.913,12.983C164.286,129.565,174.229,121.543,174.229,121.543z"/>
	<radialGradient id="SVGID_5_" cx="151.3353" cy="16.853" r="101.5404" gradientUnits="userSpaceOnUse">
		<stop  offset="0" style="stop-color:#63B246"/>
		<stop  offset="0.1863" style="stop-color:#5EAF46"/>
		<stop  offset="0.394" style="stop-color:#51A844"/>
		<stop  offset="0.6118" style="stop-color:#3B9B42"/>
		<stop  offset="0.8353" style="stop-color:#1C8A3F"/>
		<stop  offset="1" style="stop-color:#007A3C"/>
	</radialGradient>
	<path style="fill:url(#SVGID_5_);" d="M203.839,14.565c0,4.971-26.883,14.747-67.488,14.747c-40.605,0-79.559-18.776-79.559-23.747
		s32.918,0,73.523,0S203.839,9.594,203.839,14.565z"/>
	<linearGradient id="SVGID_6_" gradientUnits="userSpaceOnUse" x1="110.4241" y1="145.3227" x2="151.7825" y2="145.3227">
		<stop  offset="0" style="stop-color:#FFDD00"/>
		<stop  offset="0.2564" style="stop-color:#B2631C"/>
		<stop  offset="0.3132" style="stop-color:#AD5F1B"/>
		<stop  offset="0.3764" style="stop-color:#A05416"/>
		<stop  offset="0.4428" style="stop-color:#8A430F"/>
		<stop  offset="0.5109" style="stop-color:#6B2A05"/>
		<stop  offset="0.5421" style="stop-color:#5A1C00"/>
		<stop  offset="0.5986" style="stop-color:#793C02"/>
		<stop  offset="0.6943" style="stop-color:#A96D04"/>
		<stop  offset="0.785" style="stop-color:#CE9406"/>
		<stop  offset="0.8682" style="stop-color:#E9AF08"/>
		<stop  offset="0.9413" style="stop-color:#F9C009"/>
		<stop  offset="0.9963" style="stop-color:#FFC609"/>
	</linearGradient>
	<path style="fill:url(#SVGID_6_);" d="M111.424,124.618l-1,38.601c0,0,16.188,6.32,41.358,0l-4.377-38.601H111.424z"/>
	<linearGradient id="SVGID_7_" gradientUnits="userSpaceOnUse" x1="116.3362" y1="145.2331" x2="146.0325" y2="145.2331">
		<stop  offset="0" style="stop-color:#2A2722"/>
		<stop  offset="0.2564" style="stop-color:#010000"/>
		<stop  offset="0.6923" style="stop-color:#000000"/>
		<stop  offset="0.7363" style="stop-color:#181819"/>
		<stop  offset="0.8293" style="stop-color:#565759"/>
		<stop  offset="0.8755" style="stop-color:#77787B"/>
		<stop  offset="0.8967" style="stop-color:#727376"/>
		<stop  offset="0.9213" style="stop-color:#656668"/>
		<stop  offset="0.9476" style="stop-color:#4E4F51"/>
		<stop  offset="0.9748" style="stop-color:#2F3031"/>
		<stop  offset="1" style="stop-color:#0C0C0C"/>
	</linearGradient>
	<path style="fill:url(#SVGID_7_);" d="M117.055,130.736l-0.719,27.028c0,0,11.623,4.425,29.696,0l-3.143-27.028H117.055z"/>
</g>
</svg>
